Coordinates
version=1
nRows=13
nColumns=40
inDegrees=yes

Units are S.I. units (second, meters, Newtons, ...)
If the header above contains a line with 'inDegrees', this indicates whether rotational values are in degrees (yes) or radians (no).

endheader
time	pelvis_tilt	pelvis_list	pelvis_rotation	pelvis_tx	pelvis_ty	pelvis_tz	hip_flexion_r	hip_adduction_r	hip_rotation_r	knee_angle_r	knee_angle_r_beta	ankle_angle_r	subtalar_angle_r	mtp_angle_r	hip_flexion_l	hip_adduction_l	hip_rotation_l	knee_angle_l	knee_angle_l_beta	ankle_angle_l	subtalar_angle_l	mtp_angle_l	lumbar_extension	lumbar_bending	lumbar_rotation	arm_flex_r	arm_add_r	arm_rot_r	elbow_flex_r	pro_sup_r	wrist_flex_r	wrist_dev_r	arm_flex_l	arm_add_l	arm_rot_l	elbow_flex_l	pro_sup_l	wrist_flex_l	wrist_dev_l
      3.65000000	    -20.74254641	      5.32210614	      3.45223832	     -0.32499787	      0.84686078	     -0.99709922	     27.63788940	    -12.79185636	     -5.72928565	     87.99336553	      1.53577395	     -3.85248066	      0.00000000	      0.00000000	     61.27889348	      4.07307371	    -10.74263317	     72.43626695	      1.26425136	     22.26065640	      0.00000000	      0.00000000	      3.26956132	     -9.61117894	     -9.44521661	     89.94961983	     -0.37096286	     33.31411986	     50.17937287	     83.28740851	      0.00000000	      0.00000000	     89.95960590	    -18.77525667	     35.89950260	     57.20708836	     86.35836658	      0.00000000	      0.00000000
      3.65500000	    -20.75332148	      5.32883501	      3.46042195	     -0.32508989	      0.84657681	     -0.99705021	     27.65546436	    -12.78899356	     -5.72565538	     87.97584439	      1.53546815	     -3.95146650	      0.00000000	      0.00000000	     61.32252572	      4.06556028	    -10.75622158	     72.48538190	      1.26510857	     22.28652149	      0.00000000	      0.00000000	      3.27913229	     -9.64306553	     -9.45917715	     89.94972308	     -0.35355081	     33.23448689	     50.13512933	     83.99978427	      0.00000000	      0.00000000	     89.95967767	    -18.71125621	     35.86868096	     57.14935874	     86.09672169	      0.00000000	      0.00000000
      3.66000000	    -20.74780056	      5.32314711	      3.42583368	     -0.32512066	      0.84633865	     -0.99703430	     27.66185318	    -12.75686655	     -5.69672363	     87.96183031	      1.53522356	     -3.94758345	      0.00000000	      0.00000000	     61.32916327	      4.03350755	    -10.76890347	     72.51964583	      1.26570659	     22.29565486	      0.00000000	      0.00000000	      3.27390727	     -9.64376736	     -9.40733852	     89.94979418	     -0.38337304	     33.25368757	     50.19060802	     83.00649250	      0.00000000	      0.00000000	     89.95971809	    -18.61445478	     35.72226539	     57.10113395	     86.15616026	      0.00000000	      0.00000000
      3.66500000	    -20.78779412	      5.32099959	      3.46980703	     -0.32522404	      0.84598910	     -0.99707216	     27.69075721	    -12.76108169	     -5.72412283	     87.93234458	      1.53470893	     -3.93915329	      0.00000000	      0.00000000	     61.42541851	      4.04509448	    -10.77064516	     72.60122242	      1.26713037	     22.30974802	      0.00000000	      0.00000000	      3.30957207	     -9.65505448	     -9.43112705	     89.94989078	     -0.38240178	     33.20775368	     50.15108816	     83.09326449	      0.00000000	      0.00000000	     89.95984427	    -18.56098192	     35.75015925	     57.05399839	     86.32806688	      0.00000000	      0.00000000
      3.67000000	    -20.82088885	      5.31694301	      3.46928306	     -0.32528454	      0.84568793	     -0.99710498	     27.72189014	    -12.73526688	     -5.69204255	     87.90385462	      1.53421169	     -3.92352175	      0.00000000	      0.00000000	     61.48821084	      4.03037077	    -10.77712930	     72.65766771	      1.26811553	     22.34412357	      0.00000000	      0.00000000	      3.34142076	     -9.66287444	     -9.40944099	     89.94990652	     -0.39701764	     33.16760385	     50.08562813	     83.00533644	      0.00000000	      0.00000000	     89.95992383	    -18.48042086	     35.70578879	     57.01788742	     86.27689876	      0.00000000	      0.00000000
      3.67500000	    -20.78014081	      5.37781260	      3.43559583	     -0.32519144	      0.84549349	     -0.99714785	     27.67661143	    -12.78199730	     -5.63039492	     87.83924408	      1.53308402	     -4.11681659	      0.00000000	      0.00000000	     61.44096453	      4.03183263	    -10.86407514	     72.70261723	      1.26890005	     22.48492979	      0.00000000	      0.00000000	      3.29252489	     -9.71854841	     -9.38108652	     89.95004922	     -0.45732808	     33.38689230	     50.15312854	     81.97484125	      0.00000000	      0.00000000	     89.95996525	    -18.50855482	     35.75979902	     57.11531489	     85.52906996	      0.00000000	      0.00000000
      3.68000000	    -20.87087177	      5.28337976	      3.52562995	     -0.32540869	      0.84510366	     -0.99719537	     27.74364774	    -12.69552566	     -5.74084474	     87.81132035	      1.53259666	     -3.84551486	      0.00000000	      0.00000000	     61.62537275	      4.05568104	    -10.71358677	     72.79119531	      1.27044602	     22.24523893	      0.00000000	      0.00000000	      3.39731532	     -9.65179816	     -9.40523690	     89.95003354	     -0.40411633	     33.37195715	     49.88263990	     78.26121666	      0.00000000	      0.00000000	     89.96024209	    -18.30731638	     36.10189902	     56.92552893	     81.48648229	      0.00000000	      0.00000000
      3.68500000	    -20.89956804	      5.35254333	      3.47940278	     -0.32533518	      0.84481773	     -0.99726146	     27.79839141	    -12.73073429	     -5.64056128	     87.82476734	      1.53283135	     -3.93546724	      0.00000000	      0.00000000	     61.64903474	      4.05020264	    -10.83576872	     72.81285776	      1.27082411	     22.39847353	      0.00000000	      0.00000000	      3.43632786	     -9.70004594	     -9.41059317	     89.95008090	     -0.31927167	     33.09813948	     49.80336235	     83.80245299	      0.00000000	      0.00000000	     89.96002625	    -18.38658362	     35.67481816	     56.90428459	     86.10619627	      0.00000000	      0.00000000
      3.69000000	    -20.91825480	      5.41128508	      3.52600519	     -0.32553385	      0.84450912	     -0.99732064	     27.83631110	    -12.80494662	     -5.65601559	     87.82770623	      1.53288265	     -3.95737701	      0.00000000	      0.00000000	     61.70822070	      4.12335382	    -10.86726250	     72.84863788	      1.27144859	     22.39135326	      0.00000000	      0.00000000	      3.43720983	     -9.77363978	     -9.41736964	     89.95019861	     -0.34484355	     33.06744226	     49.82078645	     83.40899892	      0.00000000	      0.00000000	     89.96021917	    -18.29003814	     35.61170616	     56.82635713	     86.14796130	      0.00000000	      0.00000000
      3.69500000	    -20.88245799	      5.41970297	      3.58977228	     -0.32559497	      0.84430619	     -0.99738476	     27.77295524	    -12.80890081	     -5.70678725	     87.78950900	      1.53221598	     -3.97625531	      0.00000000	      0.00000000	     61.69618530	      4.18470852	    -10.85111505	     72.88137005	      1.27201987	     22.41398715	      0.00000000	      0.00000000	      3.38444021	     -9.80458799	     -9.44697387	     89.95027494	     -0.38548398	     33.05277731	     49.81833208	     83.00714290	      0.00000000	      0.00000000	     89.96035083	    -18.16239549	     35.51844012	     56.73066149	     86.20000140	      0.00000000	      0.00000000
      3.70000000	    -20.93745233	      5.37257431	      3.60852786	     -0.32562723	      0.84395474	     -0.99742380	     27.81578806	    -12.73432156	     -5.71922449	     87.78543840	      1.53214494	     -3.94719534	      0.00000000	      0.00000000	     61.78490434	      4.16878181	    -10.80982308	     72.96340193	      1.27345160	     22.36234301	      0.00000000	      0.00000000	      3.44674096	     -9.75068938	     -9.47330502	     89.95034113	     -0.32982739	     32.94138832	     49.76217310	     83.92145146	      0.00000000	      0.00000000	     89.96034119	    -18.18652059	     35.55223979	     56.74960634	     85.99385611	      0.00000000	      0.00000000
      3.70500000	    -20.96052060	      5.30650370	      3.62335680	     -0.32564272	      0.84370910	     -0.99741444	     27.82088985	    -12.63325921	     -5.75402045	     87.72378441	      1.53106887	     -3.92208557	      0.00000000	      0.00000000	     61.82767444	      4.10973374	    -10.82097394	     72.99676450	      1.27403388	     22.42004103	      0.00000000	      0.00000000	      3.48048903	     -9.68111306	     -9.48721626	     89.95048374	     -0.30877405	     32.96994570	     49.75629874	     83.27617748	      0.00000000	      0.00000000	     89.96032516	    -18.15281117	     35.51572888	     56.67644775	     86.09097104	      0.00000000	      0.00000000
      3.71000000	    -20.96530792	      5.31752643	      3.66361235	     -0.32567280	      0.84342640	     -0.99752724	     27.82175004	    -12.64325310	     -5.78392303	     87.72082125	      1.53101715	     -3.92794681	      0.00000000	      0.00000000	     61.86974755	      4.17411976	    -10.75829257	     73.05640647	      1.27507483	     22.41809918	      0.00000000	      0.00000000	      3.48474116	     -9.69797268	     -9.50214063	     89.95043002	     -0.32465076	     32.93920244	     49.75320737	     83.27616503	      0.00000000	      0.00000000	     89.96043382	    -18.07684436	     35.46810480	     56.61156669	     86.15750262	      0.00000000	      0.00000000
